<?xml version="1.0" standalone="no"?>
<!DOCTYPE svg PUBLIC "-//W3C//DTD SVG 20010904//EN"
 "http://www.w3.org/TR/2001/REC-SVG-20010904/DTD/svg10.dtd">
<svg version="1.0" xmlns="http://www.w3.org/2000/svg"
 width="464.000000pt" height="427.000000pt" viewBox="0 0 464.000000 427.000000"
 preserveAspectRatio="xMidYMid meet">

<g transform="translate(0.000000,427.000000) scale(0.100000,-0.100000)"
fill="#000000" stroke="none">
<path d="M10 2135 l0 -2135 2315 0 2315 0 0 190 0 190 -1999 2 -1999 3 151
212 c84 117 155 213 159 213 4 0 65 -81 135 -179 70 -99 132 -179 138 -177 5
1 214 288 465 636 251 349 460 635 466 636 5 2 88 -107 184 -242 96 -135 180
-249 186 -254 6 -6 134 163 370 490 197 275 367 516 377 535 23 42 24 122 3
163 -19 37 -79 90 -112 98 -14 4 -50 4 -80 2 -41 -4 -63 -12 -90 -34 -19 -16
-131 -163 -249 -326 l-213 -298 -187 261 c-103 143 -191 257 -195 252 -4 -4
-211 -291 -460 -638 -248 -346 -456 -634 -460 -638 -4 -5 -65 72 -135 170 -70
98 -131 182 -135 186 -4 5 -133 -166 -286 -379 l-279 -388 -5 1790 -5 1789
-187 3 -188 2 0 -2135z"/>
<path d="M3615 4199 c-177 -33 -336 -118 -452 -243 -210 -224 -258 -523 -129
-801 148 -318 520 -485 902 -406 274 57 481 240 569 504 133 400 -143 848
-580 938 -95 20 -226 23 -310 8z m473 -98 c98 -46 109 -61 45 -61 -164 0 -393
-126 -568 -312 -166 -176 -275 -375 -275 -500 0 -62 30 -147 76 -216 l36 -54
-92 3 c-88 4 -93 5 -116 34 -63 78 -86 267 -50 405 21 80 100 245 153 323 131
190 315 336 503 399 88 29 197 21 288 -21z m78 -127 c21 -14 70 -56 108 -92
58 -56 66 -61 50 -33 -11 19 -45 61 -76 93 -64 64 -55 79 14 22 60 -50 125
-128 153 -184 l24 -48 -77 1 c-42 1 -107 -5 -144 -12 l-68 -15 -67 66 c-38 35
-94 82 -125 103 -32 21 -58 41 -58 45 0 10 69 40 142 61 82 23 79 23 124 -7z
m-237 -130 c70 -47 161 -136 161 -156 0 -9 -9 -20 -21 -23 -17 -6 -37 9 -102
72 -45 44 -97 89 -114 102 -18 12 -33 27 -33 32 0 21 59 6 109 -27z m-107 -40
c50 -32 178 -155 178 -171 0 -15 -183 -184 -270 -250 -84 -63 -193 -117 -278
-139 -81 -20 -108 -16 -104 14 4 46 64 172 125 264 67 102 261 308 290 308 9
0 36 -12 59 -26z m512 -209 c-1 -105 -24 -184 -84 -285 -137 -232 -449 -425
-744 -461 l-91 -12 -62 31 c-77 39 -90 57 -36 48 21 -4 78 -2 127 4 387 48
740 343 804 673 17 88 24 97 67 94 18 -2 20 -9 19 -92z m127 73 c19 -29 30
-88 35 -188 4 -75 3 -101 -5 -90 -6 8 -11 27 -11 41 0 40 -38 142 -76 204
l-34 58 41 -6 c23 -3 46 -11 50 -19z m3 -380 c-29 -189 -216 -406 -377 -440
-67 -14 -174 0 -241 32 l-41 20 40 -8 c22 -4 85 -7 140 -7 90 0 106 3 160 29
117 57 253 224 293 358 20 68 35 77 26 16z"/>
</g>
</svg>
